<svg xmlns="http://www.w3.org/2000/svg" width="35.993" height="23.759" viewBox="0 0 35.993 23.759">
  <path id="behance" d="M14.53,16.742s3.406-.265,3.406-4.426S15.15,6.122,11.618,6.122H0V29.389H11.617s7.094.232,7.094-6.869c0,0,.308-5.778-4.181-5.778ZM5.119,10.255h6.5s1.58,0,1.58,2.419-.929,2.774-1.984,2.774H5.119Zm6.169,15H5.119V19.034h6.5s2.354-.032,2.354,3.195c0,2.722-1.759,3-2.684,3.024Zm16.88-13.214c-8.588,0-8.581,8.941-8.581,8.941S19,29.874,28.168,29.874c0,0,7.637.457,7.637-6.187H31.878s.13,2.5-3.578,2.5a3.68,3.68,0,0,1-3.931-4.05H35.93s1.276-10.1-7.762-10.1Zm3.494,6.995H24.329s.479-3.586,3.928-3.586,3.406,3.586,3.406,3.586Zm.913-11.545H23.364v2.869h9.211V7.488Z" transform="translate(0 -6.122)" fill="#f5f5f5"/>
</svg>
