<svg xmlns="http://www.w3.org/2000/svg" width="66" height="64.375" viewBox="0 0 66 64.375">
  <g id="git" transform="translate(-12.205 -13.019)" opacity="0.73">
    <path id="XMLID_26_" d="M45.205,13.019A33.006,33.006,0,0,0,34.772,77.338c1.645.307,2.26-.723,2.26-1.591,0-.8-.036-3.381-.036-6.148-9.186,1.989-11.121-3.888-11.121-3.888-1.5-3.815-3.671-4.828-3.671-4.828-3-2.043.217-2.007.217-2.007,3.309.235,5.063,3.4,5.063,3.4,2.947,5.045,7.721,3.58,9.6,2.748a7.028,7.028,0,0,1,2.1-4.412C31.861,59.78,24.14,56.941,24.14,44.3a12.771,12.771,0,0,1,3.4-8.86,11.881,11.881,0,0,1,.325-8.734s2.767-.886,9.077,3.381a31.51,31.51,0,0,1,8.264-1.1,32.287,32.287,0,0,1,8.264,1.1c6.293-4.267,9.059-3.381,9.059-3.381a11.881,11.881,0,0,1,.325,8.734,12.771,12.771,0,0,1,3.4,8.86c0,12.676-7.721,15.46-15.062,16.274,1.175,1.031,2.242,3.038,2.242,6.112,0,4.412-.036,7.974-.036,9.059,0,.886.6,1.9,2.26,1.591A33.01,33.01,0,0,0,45.205,13.019Z" fill="#181616" fill-rule="evenodd"/>
    <path id="XMLID_30_" d="M24.7,60.395a.416.416,0,0,1-.561.108c-.235-.108-.38-.325-.289-.488a.416.416,0,0,1,.561-.108C24.646,60.015,24.791,60.232,24.7,60.395Z" fill="#181616"/>
    <path id="XMLID_31_" d="M26.038,61.9a.511.511,0,0,1-.669-.145c-.217-.235-.253-.542-.09-.687s.452-.072.669.145C26.165,61.443,26.2,61.751,26.038,61.9Z" fill="#181616"/>
    <path id="XMLID_32_" d="M27.34,63.794c-.2.145-.524.018-.741-.289a.6.6,0,0,1,0-.8c.2-.145.524-.018.741.271C27.557,63.288,27.557,63.649,27.34,63.794Z" fill="#181616"/>
    <path id="XMLID_33_" d="M29.13,65.62c-.181.2-.561.145-.85-.127a.64.64,0,0,1-.181-.85c.181-.2.579-.145.85.127C29.239,65.06,29.311,65.439,29.13,65.62Z" fill="#181616"/>
    <path id="XMLID_34_" d="M31.59,66.687c-.072.253-.452.38-.832.271s-.615-.416-.542-.669.452-.38.832-.271C31.409,66.127,31.662,66.434,31.59,66.687Z" fill="#181616"/>
    <path id="XMLID_35_" d="M34.284,66.886c.018.271-.307.506-.705.506a.639.639,0,0,1-.723-.488c0-.271.307-.506.705-.506S34.284,66.615,34.284,66.886Z" fill="#181616"/>
    <path id="XMLID_36_" d="M36.8,66.47c.054.271-.217.542-.615.615-.38.072-.741-.09-.778-.362-.054-.271.235-.542.615-.615S36.743,66.2,36.8,66.47Z" fill="#181616"/>
  </g>
</svg>
