<svg xmlns="http://www.w3.org/2000/svg" width="45.5" height="65" viewBox="0 0 45.5 65">
  <g id="html" transform="translate(-9.75)" opacity="0.73">
    <path id="Trazado_2" data-name="Trazado 2" d="M36.08,4.875l2.272,3.58,2.272-3.58V9.75h3.25V0h-3.25L38.353,3.58,36.4,0h-3.58V9.75h3.25V4.875ZM53.295,9.75V6.5H48.75V0H45.5V9.75Zm-27.942,0H28.6V3.25h2.933V0h-9.1V3.25h2.92v6.5ZM14.955,6.5h2.92V9.75h3.25V0h-3.25V3.25h-2.92V0h-3.25V9.75h3.25V6.5ZM9.75,13l3.9,46.795L32.5,65l18.853-5.205L55.25,13H9.75ZM46.478,27.955h-22.1l.647,5.853H45.83L44.205,51.67,32.5,54.92,20.795,51.67l-.978-9.42H25.67L26,47.125l6.5,1.625L39,47.125l.647-7.478H19.5L17.875,22.42h29.25Z"/>
  </g>
</svg>
