<svg xmlns="http://www.w3.org/2000/svg" width="66" height="50.273" viewBox="0 0 66 50.273">
  <g id="js" transform="translate(0 -7.876)" opacity="0.73">
    <path id="Trazado_1" data-name="Trazado 1" d="M14.373,8.662h10.97V39.42c0,13.87-6.639,18.7-17.261,18.7A28.8,28.8,0,0,1,0,56.964l1.225-8.882a18.221,18.221,0,0,0,5.633.864c4.628,0,7.515-2.1,7.515-9.6V8.662ZM34.882,46.071A27.77,27.77,0,0,0,47.089,49.1c5.053,0,7.721-2.088,7.721-5.337,0-2.965-2.307-4.77-8.16-6.793-8.082-2.887-13.432-7.361-13.432-14.515,0-8.3,7-14.579,18.408-14.579a28.539,28.539,0,0,1,12.414,2.449l-2.449,8.817a22.747,22.747,0,0,0-10.106-2.307c-4.77,0-7.077,2.243-7.077,4.692,0,3.107,2.668,4.473,9.023,6.935C62.03,31.634,66,36.12,66,43.055c0,8.16-6.213,15.095-19.568,15.095A31.894,31.894,0,0,1,32.639,55.12l2.243-9.049Z" fill="#444"/>
  </g>
</svg>
