<svg xmlns="http://www.w3.org/2000/svg" width="36" height="36" viewBox="0 0 36 36">
  <path id="linkedin" d="M30.67,30.678H25.339V22.324c0-1.992-.041-4.556-2.778-4.556-2.78,0-3.2,2.167-3.2,4.409v8.5h-5.33V13.5h5.121v2.341h.069a5.618,5.618,0,0,1,5.055-2.775c5.4,0,6.4,3.555,6.4,8.183v9.429ZM8.005,11.149a3.1,3.1,0,1,1,3.1-3.095,3.093,3.093,0,0,1-3.1,3.095Zm2.673,19.529H5.333V13.5h5.346V30.678ZM33.338,0H2.656A2.625,2.625,0,0,0,0,2.594V33.407A2.624,2.624,0,0,0,2.656,36H33.333A2.634,2.634,0,0,0,36,33.407V2.594A2.635,2.635,0,0,0,33.333,0Z" fill="#f5f5f5"/>
</svg>
