<svg xmlns="http://www.w3.org/2000/svg" width="66" height="49.488" viewBox="0 0 66 49.488">
  <g id="sass" transform="translate(-12.16 -20.457)" opacity="0.73">
    <path id="XMLID_8_" d="M69.035,48.91A13.648,13.648,0,0,0,63.05,50.3a12.479,12.479,0,0,1-1.338-3.092,8.133,8.133,0,0,1-.127-2.6,24.158,24.158,0,0,1,.778-2.8c-.018-.127-.145-.687-1.465-.705s-2.477.253-2.6.6a16.673,16.673,0,0,0-.561,1.971c-.235,1.211-2.658,5.515-4.032,7.757a8.471,8.471,0,0,1-.922-2.26,8.133,8.133,0,0,1-.127-2.6,24.158,24.158,0,0,1,.778-2.8c-.018-.127-.145-.687-1.465-.705s-2.477.253-2.6.6-.271,1.175-.561,1.971c-.271.8-3.49,7.974-4.34,9.836-.434.958-.814,1.718-1.067,2.224a.939.939,0,0,1-.054.09c-.235.452-.362.687-.362.687v.018c-.181.325-.38.633-.47.633a4.133,4.133,0,0,1,.018-2.043c.488-2.5,1.627-6.383,1.609-6.509,0-.072.217-.741-.741-1.1a1.183,1.183,0,0,0-1.356.235c-.09,0-.145.2-.145.2s1.049-4.358-2.007-4.358c-1.9,0-4.538,2.079-5.84,3.96-.814.452-2.568,1.392-4.43,2.423-.705.4-1.447.8-2.134,1.175-.054-.054-.09-.108-.145-.163C23.651,48.983,16.834,46.2,17.123,40.9c.108-1.935.778-7,13.109-13.145,10.144-5.009,18.226-3.616,19.618-.542,2.007,4.394-4.321,12.53-14.809,13.724-4,.452-6.093-1.1-6.636-1.682-.561-.6-.633-.633-.85-.524-.344.181-.127.723,0,1.031a6.258,6.258,0,0,0,3.779,2.983c1.935.633,6.618.976,12.3-1.211,6.347-2.459,11.319-9.294,9.854-15.026-1.465-5.8-11.1-7.721-20.233-4.484C27.827,23.958,21.951,27,17.72,30.937c-5.027,4.7-5.822,8.788-5.5,10.505C13.4,47.518,21.77,51.478,25.115,54.407c-.163.09-.325.181-.452.253-1.682.832-8.064,4.177-9.656,7.7-1.808,4,.289,6.871,1.682,7.251a10.309,10.309,0,0,0,11.1-4.5,11.183,11.183,0,0,0,.994-10.252c-.018-.018-.018-.054-.054-.072.434-.253.886-.524,1.32-.778.85-.506,1.7-.976,2.423-1.356a15.7,15.7,0,0,0-.85,4.394c-.181,2.26.741,5.207,1.971,6.365a2.173,2.173,0,0,0,1.591.524c1.428,0,2.061-1.175,2.766-2.586.868-1.718,1.645-3.707,1.645-3.707s-.976,5.37,1.682,5.37c.958,0,1.935-1.248,2.369-1.9v.018s.018-.036.072-.127a1.988,1.988,0,0,1,.163-.253v-.018c.38-.669,1.248-2.206,2.549-4.755C48.1,52.708,49.706,48.6,49.706,48.6a21.52,21.52,0,0,0,.633,2.658,25.046,25.046,0,0,0,1.374,3.092c-.38.542-.633.85-.633.85l.018.018c-.307.416-.651.85-1.031,1.284a37.1,37.1,0,0,0-3.092,3.888,1.055,1.055,0,0,0,.289,1.428,2.566,2.566,0,0,0,1.609.271,7.631,7.631,0,0,0,2.423-.561,8.04,8.04,0,0,0,2.079-1.1,4.688,4.688,0,0,0,2.007-4.1,8.365,8.365,0,0,0-.759-2.911c.127-.163.235-.344.344-.506a54.947,54.947,0,0,0,3.616-6.238,21.521,21.521,0,0,0,.633,2.658,17.61,17.61,0,0,0,1.175,2.658,11.631,11.631,0,0,0-3.526,4.538c-.759,2.188-.163,3.182.958,3.417a3.27,3.27,0,0,0,1.754-.362A8.384,8.384,0,0,0,61.8,58.439c1.284-.958,2.531-2.278,2.459-4.068a7.513,7.513,0,0,0-.561-2.4,12.751,12.751,0,0,1,6.4-.741c5.732.669,6.871,4.249,6.654,5.768a3.848,3.848,0,0,1-1.826,2.586c-.4.253-.524.344-.488.524.054.271.235.253.579.2a4.487,4.487,0,0,0,3.128-4C78.383,52.744,75,48.874,69.035,48.91ZM24.772,63.828c-1.9,2.079-4.557,2.857-5.7,2.188-1.23-.705-.741-3.779,1.591-5.967A31.074,31.074,0,0,1,25.133,56.7c.271-.163.687-.416,1.175-.705.09-.054.127-.072.127-.072.09-.054.2-.127.289-.181A8.184,8.184,0,0,1,24.772,63.828Zm13.868-9.42c-.669,1.609-2.043,5.75-2.893,5.515-.723-.2-1.175-3.327-.145-6.419a14.489,14.489,0,0,1,2.26-4.141c1.031-1.157,2.188-1.537,2.459-1.067C40.665,48.91,39.038,53.395,38.64,54.407Zm11.427,5.479c-.271.145-.542.235-.669.163-.09-.054.127-.235.127-.235s1.428-1.537,2.007-2.242c.325-.416.705-.886,1.121-1.428v.163C52.653,58.132,50.863,59.38,50.068,59.886Zm8.824-2.025c-.2-.145-.163-.633.524-2.134A7.98,7.98,0,0,1,61.387,53.2a3.561,3.561,0,0,1,.2,1.1A3.655,3.655,0,0,1,58.891,57.861Z" fill="#cd6799"/>
  </g>
</svg>
